# xmcd CD database file
#
# Track frame offsets:
#	150
#	14575
#	35635
#	50277
#	62615
#	76360
#	90523
#	108363
#	123105
#	137865
#	149905
#	160583
#
# Disc length: 2328 seconds
#
# Revision: 0
# Processed by: cddbd v1.5.2PL0 Copyright (c) Steve Scherf et al.
# Submitted via: CDex 1.51
#
DISCID=9f09160c
DTITLE=Colleen Peterson - Beginning To Feel Like Home
DYEAR=1900
DGENRE=Country
TTITLE0=Don't It Make You Wonna Dance1
TTITLE1=Who Will The Next Fool Be?
TTITLE2=Richland Woman Blues
TTITLE3=Sad Songs And Waltzes
TTITLE4=Music In Your Eyes
TTITLE5=Six Days On The Road
TTITLE6=Brand New Tennessee Waltz
TTITLE7=Souvenirs
TTITLE8=Chattanooga Night
TTITLE9=You're Not The Only One
TTITLE10=Denver Hotel
TTITLE11=Takes A Lot To Laugh
EXTD=
EXTT0=
EXTT1=
EXTT2=
EXTT3=
EXTT4=
EXTT5=
EXTT6=
EXTT7=
EXTT8=
EXTT9=
EXTT10=
EXTT11=
PLAYORDER=
